<svg xmlns="http://www.w3.org/2000/svg" width="1200" height="260" viewBox="0 0 1200 260">
<defs>
 <linearGradient id="g" x1="0" y1="0" x2="1" y2="1"><stop stop-color="#22d3ee"/><stop offset=".5" stop-color="#8b5cf6"/><stop offset="1" stop-color="#f472b6"/></linearGradient>
 <radialGradient id="r"><stop stop-color="#8b5cf6" stop-opacity=".35"/><stop offset="1" stop-color="#0d0e16" stop-opacity="0"/></radialGradient>
 <pattern id="p" width="28" height="28" patternUnits="userSpaceOnUse"><circle cx="2" cy="2" r="1" fill="#94a3b8" opacity=".13"/></pattern>
 <filter id="glow"><feGaussianBlur stdDeviation="16"/></filter>
</defs>
<rect width="1200" height="260" rx="24" fill="#0d0e16"/>
<circle cx="1030" cy="50" r="250" fill="url(#r)" filter="url(#glow)"/>
<circle cx="210" cy="220" r="190" fill="url(#r)" filter="url(#glow)"/>
<rect width="1200" height="260" rx="24" fill="url(#p)"/>
<path d="M0 215 C180 165 270 265 430 205 S700 145 850 205 S1050 255 1200 185" fill="none" stroke="url(#g)" stroke-width="2" opacity=".6"/>
<path d="M0 230 C180 180 280 275 450 220 S700 165 860 220 S1060 270 1200 200" fill="none" stroke="#22d3ee" stroke-width="1" opacity=".22"/>
<text x="62" y="88" fill="#22d3ee" font-family="monospace" font-size="13" font-weight="700" letter-spacing="4">// SOFTWARE ENGINEER</text>
<text x="60" y="145" fill="#f8fafc" font-family="Arial,sans-serif" font-size="52" font-weight="800">Raman Verma</text>
<text x="63" y="182" fill="#cbd5e1" font-family="Arial,sans-serif" font-size="18">Java Backend • Full Stack • AI/ML</text>
<rect x="930" y="55" width="170" height="44" rx="22" fill="#111827" stroke="url(#g)"/>
<circle cx="954" cy="77" r="5" fill="#22c55e"/><text x="970" y="82" fill="#e2e8f0" font-family="monospace" font-size="13">OPEN TO BUILD</text>
</svg>